<svg xmlns="http://www.w3.org/2000/svg" width="62.982" height="64" viewBox="0 0 62.982 64"><g transform="translate(-2143.162 351.947)"><path d="M2199.55-337.353a12.951,12.951,0,0,0,1.505-5.5,9.108,9.108,0,0,0-9.1-9.1,9.1,9.1,0,0,0-7.712,4.279,30.434,30.434,0,0,0-5.42-1.064.955.955,0,0,0-1.047.852.954.954,0,0,0,.852,1.047,28.537,28.537,0,0,1,4.766.906,9.06,9.06,0,0,0-.537,3.078c0,6.429,8.079,14.582,8.422,14.925a.964.964,0,0,0,1.35,0,43.567,43.567,0,0,0,5.922-7.593,28.283,28.283,0,0,1,4.388,8.542l-13.841,1.457a.956.956,0,0,0-.634.338c-.143.172-3.529,4.241-5.263,6.847a9.053,9.053,0,0,0-5.182,2.065l-.18-1.079-1.23-7.337a.953.953,0,0,0-.328-.573l-7.38-6.192a.953.953,0,0,0-.5-.216l-7.562-.945a9.138,9.138,0,0,0-5.732-5.641,28.306,28.306,0,0,1,19.2-8.7.954.954,0,0,0,.909-1,.953.953,0,0,0-1-.909,30.2,30.2,0,0,0-11.851,3.012,30.413,30.413,0,0,0-9.461,7.159c-.217-.016-.435-.026-.656-.026a9.108,9.108,0,0,0-9.1,9.1,14.853,14.853,0,0,0,2.32,7.024,30.84,30.84,0,0,0-.284,4.173,30.275,30.275,0,0,0,8.925,21.548,30.274,30.274,0,0,0,21.548,8.925,30.274,30.274,0,0,0,21.548-8.925,30.274,30.274,0,0,0,8.925-21.548A30.143,30.143,0,0,0,2199.55-337.353Zm-7.592,7.367c-1.906-2.068-7.189-8.219-7.189-12.864a7.2,7.2,0,0,1,7.189-7.189,7.2,7.2,0,0,1,7.189,7.189C2199.146-338.2,2193.864-332.054,2191.958-329.985Zm-8.143,13.538a7.2,7.2,0,0,1,7.189,7.189c0,4.645-5.283,10.8-7.189,12.864-1.906-2.068-7.189-8.219-7.189-12.864A7.2,7.2,0,0,1,2183.814-316.448Zm-15.921-13.36,6.895,5.785,1.172,6.989.423,2.537a9.044,9.044,0,0,0-1.666,5.237,11.2,11.2,0,0,0,.823,3.934l-2.687,7.63-9.117,5.224a28.543,28.543,0,0,1-3.829-2.14l6.165-4.73a.951.951,0,0,0,.325-.458l2.8-8.483a.954.954,0,0,0-.415-1.117l-5.891-3.535-4.1-9.234a15.412,15.412,0,0,0,2.57-7.449,9.171,9.171,0,0,0-.058-1.015Zm-15.634-7a7.2,7.2,0,0,1,7.189,7.189c0,4.645-5.283,10.8-7.189,12.864-1.906-2.068-7.189-8.219-7.189-12.864A7.2,7.2,0,0,1,2152.26-336.806Zm-5.153,18.386q0-.792.044-1.585a45.159,45.159,0,0,0,4.435,5.313.964.964,0,0,0,1.349,0,45.126,45.126,0,0,0,4.613-5.567l3.723,8.376a.953.953,0,0,0,.381.431l5.5,3.3-2.468,7.479-6.393,4.9A28.533,28.533,0,0,1,2147.106-318.42Zm28.565,28.565a28.434,28.434,0,0,1-9.7-1.7l8.139-4.664a.954.954,0,0,0,.426-.511l2.156-6.123a42.33,42.33,0,0,0,6.448,8.517.964.964,0,0,0,1.35,0c.268-.268,5.23-5.275,7.41-10.515l7.8,1.857A28.566,28.566,0,0,1,2175.671-289.856Zm25.052-14.854-8.195-1.951a9.854,9.854,0,0,0,.383-2.6,9.11,9.11,0,0,0-7.472-8.949c1.465-2.048,3.542-4.6,4.249-5.453l13.768-1.449a28.8,28.8,0,0,1,.78,6.69A28.389,28.389,0,0,1,2200.724-304.709Z" fill="#005293"/><path d="M2433.2-40.6a5.032,5.032,0,0,0,5.026-5.026,5.032,5.032,0,0,0-5.026-5.026,5.032,5.032,0,0,0-5.026,5.026A5.032,5.032,0,0,0,2433.2-40.6Zm0-8.143a3.121,3.121,0,0,1,3.117,3.117,3.121,3.121,0,0,1-3.117,3.117,3.121,3.121,0,0,1-3.117-3.117A3.121,3.121,0,0,1,2433.2-48.742Z" transform="translate(-249.384 -263.634)" fill="#005293"/><path d="M2498.344-319.375a5.032,5.032,0,0,0-5.026,5.026,5.032,5.032,0,0,0,5.026,5.026,5.031,5.031,0,0,0,5.026-5.026A5.031,5.031,0,0,0,2498.344-319.375Zm0,8.143a3.121,3.121,0,0,1-3.117-3.117,3.121,3.121,0,0,1,3.117-3.117,3.121,3.121,0,0,1,3.117,3.117A3.121,3.121,0,0,1,2498.344-311.232Z" transform="translate(-306.386 -28.5)" fill="#005293"/><path d="M2185.787-208.488a5.032,5.032,0,0,0-5.026-5.026,5.032,5.032,0,0,0-5.026,5.026,5.032,5.032,0,0,0,5.026,5.026A5.032,5.032,0,0,0,2185.787-208.488Zm-8.143,0a3.121,3.121,0,0,1,3.117-3.117,3.121,3.121,0,0,1,3.117,3.117,3.121,3.121,0,0,1-3.117,3.117A3.121,3.121,0,0,1,2177.644-208.488Z" transform="translate(-28.501 -121.129)" fill="#005293"/></g></svg>