<svg xmlns="http://www.w3.org/2000/svg" width="246.5" height="60.389" viewBox="0 0 246.5 60.389"><g transform="translate(0 -0.272)"><g transform="translate(0 0.272)"><path d="M62,57.508c-2.5-.2-35.824-.769-36.329-.857-.613-.105-.667-1.709.227-1.709,1.751,0,32.115.279,33.086.514a6.981,6.981,0,0,0-2.063-1.821c-.815-.525-1.292-.564-1.305-.97-.247-8.388.429-25.966,1.328-27.021a12.963,12.963,0,0,1,5.908-3.233c.332-.358.187-1.447-.29-1.6-25.9-3.729-42.618-2.7-42.709-3.173C19.8,17.023,25.514,10.8,42.74,4.057c1.137-.428-3.466-3.428-4.3-3.785C25.8,3.859,1.629,20.031,2.358,20.963.437,23.107,9.657,17.895,15.6,14.43S27.4,7.086,28.327,7.616C26.5,9.134,16.124,17.01,16.467,19.254a326,326,0,0,1,41.589,3.059c1.232.281,1.232.92.048.9a19.262,19.262,0,0,0-5.007.232c-.028,9.49.366,20.055.848,29.732-2.63.054-5.519.046-8.229-.11-.255-9.217.335-26.534,1.282-27.694a5.331,5.331,0,0,1,2.94-1.683l.666-.585a20.218,20.218,0,0,0-7.332.883c-.082,9.112.074,21.309.76,28.341.029.425.12.709-.354.743-.545-.008-6.269-.076-7.12-.1-.425.011-.448-.253-.474-.537,0-.593.145-26,.783-27.8a4.384,4.384,0,0,1,2.707-1.414l.923-.809a16.543,16.543,0,0,0-6.726,1.05c-.224,9.995.214,25.083.534,28.849,0,.531-.213.477-.482.491-.27.032-7.444-.085-7.773-.085a.576.576,0,0,1-.48-.329c-.372-9.643.17-16.079,1.6-28.83.193-.573,1.211-1.165,2.562-1.483l.593-1.056c-2.389.168-5.374.764-6.763,1.688-.142,8.885-.074,20.035.145,29.258.014.712-.383.718-.811.731a21.777,21.777,0,0,0-2.926.137S1.734,58,.67,58.739C.176,58.977,0,59.948,0,59.948H64.611A9.466,9.466,0,0,0,62,57.508" transform="translate(0 -0.272)" fill="#00552e"/></g><path d="M52.689,7.361c5.951,3.59,11.936,7.81,17.688,11.945.153.259-.414.6-.82.377-7.8-4.208-14.4-7.872-20.759-10.236-.619-.27-1.008-.712-.65-1.075,1.172-.741,3.258-1.692,4.54-1.011" transform="translate(-7.318 -1.045)" fill="#00552e"/><path d="M84.9,43.038c-.131-.658.034-1.018.366-1.018.465,0,.465.392.627,1.087a7.092,7.092,0,0,0,6.983,4.935c3.156,0,6.247-1.745,6.247-5.2,0-6.351-13.493-2.8-13.493-11.388,0-4.18,3.555-6.192,7.375-6.192a11.852,11.852,0,0,1,5.588,1.187c.295,0,.366-.361.7-.361.2,0,.366.1.395.463l.5,4.473c.034.267-.034.5-.363.5-.366,0-.6-.692-.7-.99a6.343,6.343,0,0,0-6.346-4.277c-2.627,0-5.417,1.251-5.417,4.277,0,6.192,13.491,2.571,13.491,11.654,0,2.767-1.964,6.913-9.506,6.913-2.458,0-5.48-1.217-5.613-1.807L84.9,43.038" transform="translate(-12.934 -3.809)" fill="#00552e"/><path d="M105.554,37.079c0-6.846,5.386-11.82,12.2-11.82,6.78,0,12,4.841,12,11.658,0,7.407-5.148,12.176-12.56,12.176-7.21,0-11.632-5.065-11.632-12.014m2.427-.954c0,6.092,4.024,11.984,10.6,11.984,4.856,0,8.744-3.854,8.744-9.944,0-5.991-4.086-11.819-10.571-11.819C111.173,26.346,107.981,30.923,107.981,36.126Z" transform="translate(-16.089 -3.809)" fill="#00552e"/><path d="M138.866,40.131c0,5.264,3.462,7.668,7.946,7.668,6.249,0,7.679-4.084,7.679-7.965V29.166c0-3.357-3.093-1.972-3.093-3.227,0-.164.232-.329.332-.329,1.293,0,2.6.136,3.887.136.633,0,1.229-.136,1.828-.136.167,0,.431.164.431.364,0,.922-1.961.2-1.961,3.226V39.4c0,1.615.4,9.745-9.271,9.745-8.74,0-10.4-4.838-10.4-9.906V28.147c0-1.943-2.7-1.155-2.7-2.208,0-.232.565-.329.732-.329.866,0,1.694.136,2.591.136,1.065,0,2.126-.136,3.156-.136.168,0,1.065-.063,1.065.329,0,.922-2.228,0-2.228,2.372V40.131" transform="translate(-20.357 -3.862)" fill="#00552e"/><path d="M172.606,28.934c0-.227.131-1.479-.336-1.513h-5.417c-2.06,0-2.126.494-2.724,2.3-.1.329-.134.758-.562.758-.2,0-.335-.231-.335-.4L163.6,26.9c.031-.4,0-1.286.6-1.286,2.591,0,5.151.136,9.439.136,6.014,0,9.072-.136,9.737-.136.76,0,.931.2.965.954L184.5,29.2c.034.327.065.721-.369.721-1.226,0,.57-2.5-2.821-2.5h-4.753c-1.5,0-1.332-.131-1.332,1.612V45.825c0,2.764,2.694,1.68,2.694,2.7,0,.1.034.394-.3.394-.8,0-1.728-.133-2.693-.133a44.813,44.813,0,0,0-4.555.133c-.3,0-.4-.1-.4-.431,0-.786,2.631-.457,2.631-2.434V28.934" transform="translate(-24.881 -3.862)" fill="#00552e"/><path d="M192.036,28.443c-.031-2.4-2.889-1.745-2.889-2.468,0-.3.267-.364.534-.364,1.232,0,2.427.136,3.652.136,1.033,0,2.066-.136,3.1-.136.562,0,.63.2.63.329,0,.661-2.4.035-2.4,2.5v7.109c0,.46,0,.593.5.593h12.169c.329,0,.264-.82.264-.956V28.443c0-2.272-2.492-1.714-2.492-2.468,0-.2.065-.364.562-.364,1.1,0,2.823.136,3.456.136,1.229,0,1.731-.136,2.4-.136.863,0,.927.329.927.527,0,.591-2.225.032-2.225,2.3V45.89c0,2.4,3.022,1.81,3.022,2.633,0,.1-.131.394-.363.394-.9,0-1.93-.133-3.122-.133-2.132,0-3.056.133-3.692.133-.3,0-.8.1-.8-.431,0-.786,2.33-.323,2.33-2.4v-7.9c0-.528.133-.826-.264-.826H195.061c-.4,0-.4.2-.4.559v8.2c0,2.239,3.155,1.515,3.155,2.537,0,.162-.23.261-.531.261-.431,0-2.861-.133-4.619-.133a17.4,17.4,0,0,0-2.858.133c-.264,0-.364-.161-.364-.493,0-.954,2.589.133,2.589-3.128V28.443" transform="translate(-28.831 -3.862)" fill="#00552e"/><path d="M224.833,35.189c0,1.118-.066,1.118,1.265,1.118h3.587c3.459,0,2.56-2.63,3.36-2.63.264,0,.364.363.364.626,0,1.149-.065,2.273-.065,3.323,0,.857.065,1.714.065,2.6,0,.3-.134.429-.364.429-1.036,0,.1-2.9-2.693-2.9h-4.918c-.7,0-.6.562-.6,1.054v6.058c0,1.938-.264,2.727,2.525,2.727,7.68,0,8.809-3.385,9.24-3.385.236,0,.267.329.267.392a5.189,5.189,0,0,1-1.663,3.2c-1.065,1.183-1.793,1.118-3.256,1.118-2.526,0-5.051-.2-7.576-.133-1.332.034-2.727.133-4.056.133-.3,0-.5-.065-.5-.329.065-.4.4-.329,1.462-.857.862-.392.927-1.317.927-2.861V29.859c0-1.481,0-3.062-1.79-3.323-.267-.068-1-.136-1-.531,0-.258.2-.394,1.164-.394,6.286,0,8.01.136,9.4.136.67,0,3.726-.136,4.754-.136.264,0,.335.329.335.726,0,3.652-.469,3.916-.667,3.916-.8,0-.267-1.577-.8-2.338-.863-1.119-4.319-.923-5.65-.923-3.19,0-3.124-.131-3.124,2.077v6.119" transform="translate(-33.445 -3.862)" fill="#00552e"/><path d="M282.894,25.608c-.8,0-2.227.136-3.36.136-1.064,0-2.023-.136-3.025-.136a.32.32,0,0,0-.361.329c0,1.087,3.687-.164,3.687,4.144V43.846c0,.267-.034.364-.1.364s-.2-.131-.4-.364l-15.85-17.48c-.2-.231-.5-.758-.865-.758-.5,0-1.033.136-1.53.136-.531,0-1.027-.136-1.56-.136-.168,0-.5.136-.5.329,0,1.218,4.021-.689,4.021,6.155V44.237c0,2.759-.619,3.613-1.873,3.633-1.044-.065-1.694-1.081-2.655-2.545L252.973,37a6.374,6.374,0,0,0,4.186-5.7c0-6.348-7.342-5.692-7.878-5.692-1.725,0-3.617.136-5.547.136a18.255,18.255,0,0,1-2.123-.136c-.4,0-.667.2-.667.394,0,1.121,2.858-.23,2.858,2.929V45.687c0,2.5-2.427,2.041-2.427,2.866a.338.338,0,0,0,.336.36c1.259,0,2.522-.133,3.783-.133,2.761,0,3.527.133,3.825.133.267,0,.565.065.565-.261,0-1.12-3.456-.1-3.456-2.931V38.777c0-.329-.2-.921.866-.921,3.72,0,3.22-.1,4.418,1.742l3.687,5.761c1.262,1.873,2.56,3.556,4.985,3.556h6.658c.332,0,.366-.261.366-.431,0-.888-2.926.27-2.926-2.7V32.325c0-.661.105-.758.236-.758.233,0,.63.559.7.627L279.7,48.125c.7.755,1.03.92,1.263.92.267,0,.3-.459.3-1.413V28.573c0-2.406,1.964-1.814,1.964-2.668,0-.2-.133-.3-.332-.3M250.048,36.734c-1.561,0-3.622.168-3.622-.463v-8.36c0-1.283.7-1.218,1.9-1.218,3.256,0,6.349,1.348,6.349,5.363A4.323,4.323,0,0,1,250.048,36.734Z" transform="translate(-36.727 -3.859)" fill="#00552e"/><path d="M100,59.071c-1.258,0-2.205.06-3.167.06-.437,0-.859-.06-1.308-.06-.091,0-.2.046-.2.145,0,.395,1.194-.074,1.194,1.408V67.86c0,.812-.386,1.093-.653,1.124-.644.076-.956-.02-1.254-.469a9.581,9.581,0,0,1-.729-1.657l-3.033-7.483c-.043-.114-.145-.534-.307-.534-.19,0-.233.23-1.093,2.063L85.96,68.311c-.38.829-1.064.582-1.064.886,0,.088.042.159.127.159.383,0,.775-.057,1.17-.057s.817.057,1.223.057c.19,0,.395.046.395-.215,0-.378-1.037.057-1.037-.957a1.5,1.5,0,0,1,.1-.51l.934-2.038c.144-.3.408-.3.686-.3H91.7c.414,0,.5.221.647.553l.463,1.193a6.046,6.046,0,0,1,.454,1.379c0,.553-.874.409-.874.758,0,.142.23.142.318.142.394,0,.792-.057,1.181-.057h3.365c.744,0,1.484.057,2.233.057,4.039,0,5.628-2.31,5.628-5.647,0-2.691-2.54-4.638-5.119-4.638M91.488,64.7H88.6c-.187,0-.292-.063-.187-.261L90.058,60.9c.088-.178.162-.178.236,0l1.427,3.5C91.792,64.593,91.806,64.7,91.488,64.7ZM100,68.967a3.678,3.678,0,0,1-2.245-.656c-.13-.128-.09-.828-.09-1.061v-6.9c0-.684.062-.917,1.447-.917a4.733,4.733,0,0,1,4.929,5.068C104.039,67.86,102.073,68.967,100,68.967Z" transform="translate(-12.941 -8.928)" fill="#00552e"/><path d="M108.821,60.233c-.364-.874-1.121-.6-1.121-.92a.182.182,0,0,1,.2-.2c.448,0,.9.06,1.343.06.392,0,.945-.06,1.149-.06.088,0,.2.06.2.145.017.2-.593.219-.593.744a1.509,1.509,0,0,0,.131.564l2.551,5.988c.32.765.425,1.1.584,1.1s.188-.236.264-.409l2.537-6.232a2.12,2.12,0,0,0,.2-.987c0-.67-.931-.394-.931-.726,0-.145.07-.191.219-.191.323,0,.641.06.959.06.7,0,.922-.06,1.13-.06.156,0,.244.06.244.191,0,.318-.409-.046-.815.931l-3.63,8.556c-.164.36-.266.84-.485.84s-.409-.61-.542-.914l-3.6-8.482" transform="translate(-16.417 -8.969)" fill="#00552e"/><path d="M122.915,63.338c0,.5-.029.5.553.5h1.575c1.515,0,1.124-1.164,1.473-1.164.116,0,.161.162.161.275,0,.508-.028,1-.028,1.47,0,.375.028.755.028,1.147,0,.131-.059.187-.161.187-.448,0,.042-1.274-1.181-1.274h-2.157c-.307,0-.264.247-.264.459v2.676c0,.857-.116,1.209,1.106,1.209,3.372,0,3.866-1.5,4.059-1.5.1,0,.116.147.116.176a2.3,2.3,0,0,1-.732,1.41c-.463.522-.787.491-1.427.491-1.107,0-2.216-.085-3.326-.057-.585.014-1.2.057-1.78.057-.13,0-.221-.028-.221-.142.031-.173.176-.147.644-.381.375-.173.406-.581.406-1.263V60.985c0-.653,0-1.35-.786-1.464-.114-.031-.437-.06-.437-.236,0-.114.091-.174.511-.174,2.758,0,3.513.06,4.126.06.295,0,1.632-.06,2.088-.06.114,0,.145.145.145.318,0,1.615-.2,1.732-.29,1.732-.352,0-.116-.695-.352-1.03-.38-.5-1.9-.409-2.48-.409-1.4,0-1.371-.06-1.371.914v2.7" transform="translate(-18.373 -8.969)" fill="#00552e"/><path d="M131.63,61.976c0-3.025-1.768-2.182-1.768-2.719,0-.085.147-.145.221-.145.232,0,.454.06.684.06s.453-.06.672-.06c.162,0,.29.233.381.336l6.958,7.715c.088.1.145.156.176.156s.046-.042.046-.156V61.088c0-1.9-1.623-1.351-1.623-1.831a.143.143,0,0,1,.161-.145c.437,0,.863.06,1.328.06.494,0,1.126-.06,1.471-.06.088,0,.147.046.147.131,0,.377-.863.116-.863,1.177v8.411c0,.423-.011.624-.128.624-.1,0-.247-.073-.556-.405l-6.272-7.032c-.031-.029-.2-.278-.306-.278-.059,0-.1.046-.1.337v5.94c0,1.309,1.285.8,1.285,1.2,0,.07-.014.184-.164.184-.349,0-.758-.057-1.47-.057-.514,0-1.269.057-1.371.057-.176,0-.191-.085-.191-.158,0-.505,1.283.131,1.283-1.9V61.976" transform="translate(-19.795 -8.969)" fill="#00552e"/><path d="M147.548,60.579c0-.1.059-.655-.142-.666h-2.381c-.905,0-.934.219-1.2,1.013-.045.15-.057.337-.249.337-.086,0-.142-.1-.142-.175l.157-1.41c.014-.173,0-.565.264-.565,1.137,0,2.259.06,4.14.06,2.642,0,3.984-.06,4.273-.06.338,0,.409.088.425.42l.075,1.164c.014.15.031.32-.162.32-.539,0,.247-1.1-1.241-1.1h-2.086c-.655,0-.584-.06-.584.709v7.409c0,1.223,1.183.741,1.183,1.194,0,.04.017.17-.133.17-.347,0-.755-.057-1.181-.057-1.635,0-1.91.057-2,.057-.131,0-.173-.042-.173-.184,0-.353,1.149-.2,1.149-1.076V60.579" transform="translate(-21.864 -8.969)" fill="#00552e"/><path d="M156.549,60.361c-.011-1.059-1.181-.77-1.181-1.09,0-.128.031-.159.142-.159.545,0,1.067.06,1.61.06.453,0,.9-.06,1.356-.06.238,0,.275.031.275.145,0,.349-1.044.014-1.044,1.1v7.8c0,.987,1.293.658,1.293,1.093,0,.1-.045.142-.286.142-.34,0-.967-.057-1.594-.057-.892,0-1.2.057-1.4.057-.264,0-.307-.07-.307-.215,0-.423,1.136.057,1.136-1.382V60.361" transform="translate(-23.683 -8.969)" fill="#00552e"/><path d="M161.166,66.8c-.059-.295.014-.451.159-.451.2,0,.2.176.275.476a3.117,3.117,0,0,0,3.064,2.18c1.386,0,2.742-.766,2.742-2.294,0-2.8-5.923-1.234-5.923-5.029,0-1.842,1.564-2.729,3.241-2.729a5.208,5.208,0,0,1,2.452.522c.131,0,.156-.159.306-.159.088,0,.159.043.174.2l.218,1.972c.014.12-.017.219-.159.219-.162,0-.264-.3-.309-.434a2.786,2.786,0,0,0-2.783-1.89c-1.153,0-2.379.553-2.379,1.89,0,2.733,5.923,1.132,5.923,5.145,0,1.217-.859,3.05-4.172,3.05a3.831,3.831,0,0,1-2.466-.8l-.364-1.873" transform="translate(-24.563 -8.946)" fill="#00552e"/><path d="M174.342,60.579c0-.1.057-.655-.147-.666h-2.376c-.9,0-.933.219-1.2,1.013-.042.15-.059.337-.247.337-.088,0-.145-.1-.145-.175l.159-1.41c.014-.173,0-.565.261-.565,1.137,0,2.265.06,4.143.06,2.642,0,3.982-.06,4.274-.06.34,0,.409.088.428.42l.069,1.164c.017.15.031.32-.157.32-.542,0,.244-1.1-1.243-1.1h-2.086c-.661,0-.582-.06-.582.709v7.409c0,1.223,1.178.741,1.178,1.194,0,.04.017.17-.133.17-.347,0-.758-.057-1.178-.057-1.634,0-1.912.057-2,.057-.131,0-.176-.042-.176-.184,0-.353,1.155-.2,1.155-1.076V60.579" transform="translate(-25.948 -8.969)" fill="#00552e"/><path d="M190.5,65.518a3.158,3.158,0,0,0,3.485,3.388c2.742,0,3.368-1.8,3.368-3.516V60.681c0-1.482-1.356-.874-1.356-1.425,0-.074.105-.145.147-.145.568,0,1.138.06,1.705.06.278,0,.54-.06.8-.06.076,0,.19.071.19.159,0,.406-.857.088-.857,1.425v4.5c0,.715.173,4.3-4.073,4.3-3.836,0-4.566-2.137-4.566-4.373v-4.9c0-.86-1.177-.51-1.177-.976,0-.1.247-.145.318-.145.38,0,.742.06,1.137.06.465,0,.931-.06,1.387-.06.069,0,.46-.028.46.145,0,.406-.971,0-.971,1.044v5.217" transform="translate(-28.682 -8.969)" fill="#00552e"/><path d="M203.265,61.976c0-3.025-1.763-2.182-1.763-2.719,0-.085.147-.145.219-.145.23,0,.451.06.681.06s.458-.06.675-.06c.162,0,.292.233.375.336l6.964,7.715c.088.1.144.156.173.156s.045-.042.045-.156V61.088c0-1.9-1.617-1.351-1.617-1.831a.138.138,0,0,1,.153-.145c.44,0,.863.06,1.334.06.493,0,1.12-.06,1.47-.06a.13.13,0,0,1,.147.131c0,.377-.859.116-.859,1.177v8.411c0,.423-.014.624-.131.624-.1,0-.253-.073-.556-.405L204.3,62.018c-.029-.029-.2-.278-.3-.278-.059,0-.105.046-.105.337v5.94c0,1.309,1.286.8,1.286,1.2,0,.07-.014.184-.162.184-.346,0-.754-.057-1.472-.057-.509,0-1.269.057-1.371.057-.173,0-.19-.085-.19-.158,0-.505,1.283.131,1.283-1.9V61.976" transform="translate(-30.715 -8.969)" fill="#00552e"/><path d="M216.8,60.361c-.014-1.059-1.18-.77-1.18-1.09,0-.128.028-.159.147-.159.54,0,1.062.06,1.6.06.454,0,.905-.06,1.356-.06.233,0,.278.031.278.145,0,.349-1.053.014-1.053,1.1v7.8c0,.987,1.3.658,1.3,1.093,0,.1-.046.142-.292.142-.335,0-.962-.057-1.589-.057-.892,0-1.192.057-1.4.057-.267,0-.313-.07-.313-.215,0-.423,1.141.057,1.141-1.382V60.361" transform="translate(-32.867 -8.969)" fill="#00552e"/><path d="M221.794,60.233c-.366-.874-1.124-.6-1.124-.92a.183.183,0,0,1,.2-.2c.454,0,.9.06,1.343.06.4,0,.948-.06,1.154-.06.086,0,.2.06.2.145.017.2-.6.219-.6.744a1.522,1.522,0,0,0,.136.564l2.552,5.988c.32.765.422,1.1.581,1.1s.193-.236.261-.409l2.539-6.232a2.209,2.209,0,0,0,.208-.987c0-.67-.937-.394-.937-.726,0-.145.074-.191.219-.191.324,0,.642.06.962.06.7,0,.922-.06,1.126-.06.159,0,.247.06.247.191,0,.318-.409-.046-.814.931l-3.638,8.556c-.156.36-.261.84-.48.84s-.411-.61-.536-.914l-3.6-8.482" transform="translate(-33.636 -8.969)" fill="#00552e"/><path d="M235.891,63.338c0,.5-.035.5.55.5h1.572c1.518,0,1.126-1.164,1.476-1.164.117,0,.162.162.162.275,0,.508-.031,1-.031,1.47,0,.375.031.755.031,1.147,0,.131-.059.187-.162.187-.454,0,.042-1.274-1.181-1.274h-2.162c-.307,0-.255.247-.255.459v2.676c0,.857-.122,1.209,1.1,1.209,3.368,0,3.868-1.5,4.056-1.5.1,0,.116.147.116.176a2.314,2.314,0,0,1-.726,1.41c-.471.522-.789.491-1.43.491-1.113,0-2.22-.085-3.329-.057-.581.014-1.2.057-1.777.057-.131,0-.221-.028-.221-.142.025-.173.175-.147.638-.381.381-.173.412-.581.412-1.263V60.985c0-.653,0-1.35-.789-1.464-.114-.031-.44-.06-.44-.236,0-.114.088-.174.514-.174,2.755,0,3.519.06,4.129.06.292,0,1.638-.06,2.083-.06.12,0,.147.145.147.318,0,1.615-.2,1.732-.29,1.732-.352,0-.119-.695-.352-1.03-.377-.5-1.9-.409-2.477-.409-1.4,0-1.368-.06-1.368.914v2.7" transform="translate(-35.593 -8.969)" fill="#00552e"/><path d="M262.916,60.361c-.014-1.059-1.181-.77-1.181-1.09,0-.128.029-.159.148-.159.536,0,1.061.06,1.6.06.457,0,.905-.06,1.356-.06.239,0,.281.031.281.145,0,.349-1.05.014-1.05,1.1v7.8c0,.987,1.294.658,1.294,1.093,0,.1-.042.142-.286.142-.338,0-.968-.057-1.6-.057-.886,0-1.2.057-1.4.057-.261,0-.306-.07-.306-.215,0-.423,1.137.057,1.137-1.382V60.361" transform="translate(-39.896 -8.969)" fill="#00552e"/><path d="M271.235,60.579c0-.1.057-.655-.144-.666h-2.382c-.9,0-.931.219-1.194,1.013-.042.15-.057.337-.247.337-.088,0-.144-.1-.144-.175l.161-1.41c.014-.173,0-.565.262-.565,1.137,0,2.259.06,4.14.06,2.642,0,3.981-.06,4.27-.06.341,0,.412.088.426.42l.074,1.164c.017.15.028.32-.159.32-.542,0,.25-1.1-1.24-1.1h-2.086c-.658,0-.585-.06-.585.709v7.409c0,1.223,1.183.741,1.183,1.194,0,.04.015.17-.133.17-.348,0-.76-.057-1.18-.057-1.632,0-1.91.057-2,.057-.133,0-.175-.042-.175-.184,0-.353,1.152-.2,1.152-1.076V60.579" transform="translate(-40.717 -8.969)" fill="#00552e"/><path d="M279.867,60.029c-.377-.627-1.089-.451-1.089-.7a.217.217,0,0,1,.187-.219c.392,0,.67.06,1.657.06.485,0,.877-.06,1.025-.06.1,0,.278.014.278.145,0,.247-.687.264-.687.681a1.176,1.176,0,0,0,.261.6l1.767,2.8c.117.176.2.264.29.264s.162-.1.275-.292l1.507-2.427a1.359,1.359,0,0,0,.3-.8c0-.713-1.092-.409-1.092-.755,0-.187.147-.219.306-.219.353,0,.715.06,1.062.06.426,0,.848-.06,1.271-.06a.187.187,0,0,1,.162.174c0,.162-.25.219-.35.278a2.689,2.689,0,0,0-.816,1l-2.044,3.167c-.232.363-.352.437-.352.653v3.558c0,1.269,1.2.859,1.2,1.311,0,.128-.131.142-.336.142s-1.067-.057-1.606-.057c-.658,0-1.177.057-1.308.057s-.221-.014-.221-.17c0-.406,1.123-.031,1.123-1.064V64.649a1.522,1.522,0,0,0-.335-.741l-2.438-3.879" transform="translate(-42.494 -8.969)" fill="#00552e"/><path d="M252.233,61.282c0-1.337,1.223-1.89,2.372-1.89a2.779,2.779,0,0,1,2.778,1.89c.042.131.145.437.309.437.145,0,.173-.1.153-.215l-.216-1.981c-.014-.158-.088-.2-.176-.2-.144,0-.173.162-.3.162a5.138,5.138,0,0,0-2.446-.528c-1.675,0-3.233.888-3.233,2.735,0,3.8,5.908,2.228,5.908,5.035,0,1.526-1.354,2.256-2.736,2.3a4.141,4.141,0,0,1-4.151-1.768l-2.063-3.133a2.815,2.815,0,0,0,1.833-2.517c0-2.81-3.216-2.517-3.45-2.517-.755,0-1.584.06-2.427.06a7.835,7.835,0,0,1-.931-.06c-.176,0-.3.086-.3.176,0,.493,1.252-.105,1.252,1.293v7.4c0,1.109-1.061.905-1.061,1.269a.151.151,0,0,0,.147.159c.553,0,1.1-.059,1.66-.059,1.205,0,1.54.059,1.671.059.116,0,.249.028.249-.116,0-.5-1.515-.042-1.515-1.3V64.905c0-.144-.087-.409.377-.409,1.626,0,1.41-.045,1.936.772l1.617,2.549a3.053,3.053,0,0,0,1.709,1.507v0a13.517,13.517,0,0,0,2.88.213c3.471,0,4.058-1.884,4.058-3.111,0-4.009-5.911-2.412-5.911-5.147M247.156,64c-.687,0-1.589.074-1.589-.2V60.1c0-.567.3-.539.831-.539,1.422,0,2.776.6,2.776,2.372A1.9,1.9,0,0,1,247.156,64Z" transform="translate(-37.065 -8.945)" fill="#00552e"/></g></svg>