<svg xmlns="http://www.w3.org/2000/svg" width="109.715" height="73.231" viewBox="0 0 109.715 73.231"><g transform="translate(-107.643 -603)"><g transform="translate(-208.366 84)"><g transform="translate(355 519)"><path d="M1827.712,474.052a7.323,7.323,0,1,0-7.323-7.323,7.323,7.323,0,0,0,7.323,7.323Zm0-12.206a4.882,4.882,0,1,1-4.882,4.882,4.882,4.882,0,0,1,4.882-4.882Zm0,0" transform="translate(-1811.845 -459.406)" fill="#005293"/><path d="M1782.212,610.211a10.983,10.983,0,0,0-4.8-9.073,10.866,10.866,0,0,0-6.185-1.911h-9.764a11,11,0,0,0-10.984,10.984v9.764a8.543,8.543,0,0,0,7.323,8.446V655.37h2.441V606.55H1757.8v19.406a6.114,6.114,0,0,1-4.882-5.98v-9.764a8.554,8.554,0,0,1,8.543-8.544h9.764a8.44,8.44,0,0,1,4.806,1.484,8.55,8.55,0,0,1,3.738,7.059v9.764a6.1,6.1,0,0,1-3.574,5.548,5.651,5.651,0,0,1-1.308.432V606.55h-2.441V655.37h2.441V628.423a8.064,8.064,0,0,0,2.333-.683,8.542,8.542,0,0,0,4.99-7.765Zm0,0" transform="translate(-1750.479 -582.139)" fill="#005293"/><rect width="2.441" height="28.072" transform="translate(14.646 45.159)" fill="#005293"/></g></g><g transform="translate(185.625 603)"><path d="M1827.712,474.052a7.323,7.323,0,1,0-7.323-7.323,7.323,7.323,0,0,0,7.323,7.323Zm0-12.206a4.882,4.882,0,1,1-4.882,4.882,4.882,4.882,0,0,1,4.882-4.882Zm0,0" transform="translate(-1811.845 -459.406)" fill="#005293"/><path d="M1782.212,610.211a10.983,10.983,0,0,0-4.8-9.073,10.866,10.866,0,0,0-6.185-1.911h-9.764a11,11,0,0,0-10.984,10.984v9.764a8.543,8.543,0,0,0,7.323,8.446V655.37h2.441V606.55H1757.8v19.406a6.114,6.114,0,0,1-4.882-5.98v-9.764a8.554,8.554,0,0,1,8.543-8.544h9.764a8.44,8.44,0,0,1,4.806,1.484,8.55,8.55,0,0,1,3.738,7.059v9.764a6.1,6.1,0,0,1-3.574,5.548,5.651,5.651,0,0,1-1.308.432V606.55h-2.441V655.37h2.441V628.423a8.064,8.064,0,0,0,2.333-.683,8.542,8.542,0,0,0,4.99-7.765Zm0,0" transform="translate(-1750.479 -582.139)" fill="#005293"/><rect width="2.441" height="28.072" transform="translate(14.646 45.159)" fill="#005293"/></g><g transform="translate(-247.357 84)"><g transform="translate(355 519)"><path d="M1827.712,474.052a7.323,7.323,0,1,0-7.323-7.323,7.323,7.323,0,0,0,7.323,7.323Zm0-12.206a4.882,4.882,0,1,1-4.882,4.882,4.882,4.882,0,0,1,4.882-4.882Zm0,0" transform="translate(-1811.845 -459.406)" fill="#005293"/><path d="M1782.212,610.211a10.983,10.983,0,0,0-4.8-9.073,10.866,10.866,0,0,0-6.185-1.911h-9.764a11,11,0,0,0-10.984,10.984v9.764a8.543,8.543,0,0,0,7.323,8.446V655.37h2.441V606.55H1757.8v19.406a6.114,6.114,0,0,1-4.882-5.98v-9.764a8.554,8.554,0,0,1,8.543-8.544h9.764a8.44,8.44,0,0,1,4.806,1.484,8.55,8.55,0,0,1,3.738,7.059v9.764a6.1,6.1,0,0,1-3.574,5.548,5.651,5.651,0,0,1-1.308.432V606.55h-2.441V655.37h2.441V628.423a8.064,8.064,0,0,0,2.333-.683,8.542,8.542,0,0,0,4.99-7.765Zm0,0" transform="translate(-1750.479 -582.139)" fill="#005293"/><rect width="2.441" height="28.072" transform="translate(14.646 45.159)" fill="#005293"/></g></g></g></svg>