<svg id="svg" xmlns="http://www.w3.org/2000/svg" xmlns:xlink="http://www.w3.org/1999/xlink" width="400" height="141.6326530612245" viewBox="0, 0, 400,141.6326530612245"><g id="svgg"><path id="path0" d="M193.221 0.956 C 192.075 1.250,190.422 1.862,189.548 2.318 C 187.007 3.644,4.001 124.041,2.704 125.241 C -6.337 133.603,8.080 144.648,23.042 140.821 C 26.712 139.883,25.860 140.374,40.408 130.799 C 73.137 109.257,198.229 27.039,198.625 26.810 C 198.879 26.663,203.287 29.267,208.421 32.596 C 393.835 152.849,374.721 141.012,383.469 140.999 C 397.283 140.979,405.124 130.785,396.594 123.936 C 395.192 122.810,214.858 6.159,210.143 3.328 C 206.020 0.852,198.017 -0.270,193.221 0.956 " stroke="none" fill="#ffffff" fill-rule="evenodd"></path></g></svg>